<svg width="16" height="16" viewBox="0 0 16 16" fill="none" xmlns="http://www.w3.org/2000/svg">
<g clip-path="url(#clip0)">
<path d="M12.1722 2.64075C12.1722 2.2779 12.0257 1.93632 11.7602 1.67968L10.4345 0.398248C10.1727 0.145144 9.80102 0 9.43115 0H9.35059V2.71862H12.1722L12.1722 2.64075Z" fill="#212121"/>
<path d="M8.56053 9.35015C8.65025 9.08687 8.80681 8.84174 9.01097 8.64307L12.1848 5.58755V3.62483H8.89103C8.63194 3.62483 8.4375 3.42217 8.4375 3.17172V0H1.40625C0.630813 0 0 0.609757 0 1.35931V14.1066C0 14.8562 0.630813 15.4659 1.40625 15.4659H10.766C11.5415 15.4659 12.1848 14.8562 12.1848 14.1066V10.7249L11.6697 11.2108C11.4609 11.4108 11.2165 11.5563 10.9409 11.6453L9.45044 12.1263L9.22338 12.1383C8.848 12.1383 8.49278 11.9617 8.27216 11.6661C8.05334 11.3719 7.99384 10.9904 8.11284 10.6458L8.56053 9.35015ZM2.34375 8.15586H7.01603C7.27513 8.15586 7.48478 8.35852 7.48478 8.60897C7.48478 8.85941 7.27513 9.06207 7.01603 9.06207H2.34375C2.08466 9.06207 1.875 8.85941 1.875 8.60897C1.875 8.35852 2.08466 8.15586 2.34375 8.15586ZM1.875 6.79655C1.875 6.54611 2.08466 6.34345 2.34375 6.34345H7.01603C7.27513 6.34345 7.48478 6.54611 7.48478 6.79655C7.48478 7.047 7.27513 7.24966 7.01603 7.24966H2.34375C2.08466 7.24966 1.875 7.047 1.875 6.79655ZM1.875 10.4214C1.875 10.1709 2.08466 9.96828 2.34375 9.96828H7.01603C7.27513 9.96828 7.48478 10.1709 7.48478 10.4214C7.48478 10.6718 7.27513 10.8745 7.01603 10.8745H2.34375C2.08466 10.8745 1.875 10.6718 1.875 10.4214ZM8.89103 12.6869C9.15013 12.6869 9.35978 12.8896 9.35978 13.14C9.35978 13.3904 9.15016 13.5931 8.89103 13.5931H6.07853C5.81944 13.5931 5.60978 13.3904 5.60978 13.14C5.60978 12.8896 5.81944 12.6869 6.07853 12.6869H8.89103ZM2.34375 5.43724C2.08466 5.43724 1.875 5.23458 1.875 4.98414C1.875 4.73369 2.08466 4.53103 2.34375 4.53103H8.89103C9.15013 4.53103 9.35978 4.73369 9.35978 4.98414C9.35978 5.23458 9.15013 5.43724 8.89103 5.43724H2.34375Z" fill="#212121"/>
<path d="M9.40952 9.75105L9.0017 10.9337C8.94058 11.1109 9.11499 11.2794 9.29827 11.2202L10.521 10.8255L9.40952 9.75105Z" fill="#212121"/>
<path d="M13.05 6.02045L9.96289 9.00456L11.2943 10.2915C11.992 9.61694 13.3497 8.30442 14.3813 7.30726L13.05 6.02045Z" fill="#212121"/>
<path d="M15.7243 4.72086C15.5595 4.56067 15.3169 4.46909 15.0596 4.46909C14.8024 4.46909 14.5598 4.56067 14.394 4.72131L13.7129 5.37973L15.0441 6.66649C15.417 6.306 15.6747 6.05685 15.7253 6.00801C16.0914 5.65353 16.0914 5.07615 15.7243 4.72086Z" fill="#212121"/>
<path d="M15.7256 6.00835C15.7256 6.00835 15.7256 6.00832 15.7256 6.00829C15.7268 6.0071 15.7274 6.00657 15.7283 6.0056C15.7274 6.0066 15.7268 6.00713 15.7256 6.00835Z" fill="#212121"/>
<path d="M15.728 6.00559C15.7295 6.00409 15.7313 6.00234 15.7322 6.00143C15.7312 6.00237 15.7295 6.00409 15.728 6.00559Z" fill="#212121"/>
<path d="M15.7324 6.00143C15.7354 5.9984 15.7355 5.99833 15.7324 6.00143V6.00143Z" fill="#212121"/>
</g>
<defs>
<clipPath id="clip0">
<rect width="16" height="15.4659" fill="white"/>
</clipPath>
</defs>
</svg>
