<svg width="16" height="16" viewBox="0 0 16 16" fill="none" xmlns="http://www.w3.org/2000/svg">
<g clip-path="url(#clip0)">
<path d="M8.00039 6.02499C6.91136 6.02499 6.02539 6.91099 6.02539 7.99999C6.02539 9.08902 6.91139 9.97499 8.00039 9.97499C9.08942 9.97499 9.97535 9.08899 9.97535 7.99999C9.97535 6.91099 9.08939 6.02499 8.00039 6.02499Z" fill="black"/>
<path d="M11.9421 15.4649C11.8076 14.5248 11.3381 13.6614 10.6201 13.0335C9.89483 12.3993 8.96427 12.05 7.9998 12.05C7.03533 12.05 6.10474 12.3993 5.37949 13.0335C4.66143 13.6614 4.19196 14.5249 4.05746 15.4649C4.03821 15.5994 4.07831 15.7357 4.16734 15.8383C4.2564 15.941 4.38559 16 4.52149 16H11.478C11.6139 16 11.7431 15.941 11.8322 15.8383C11.9212 15.7357 11.9613 15.5994 11.9421 15.4649Z" fill="black"/>
<path d="M8.00019 3.01251C5.25007 3.01251 3.0127 5.24991 3.0127 8C3.0127 9.67012 3.83797 11.1511 5.102 12.0567C5.38838 11.8478 5.69528 11.6717 6.01688 11.53C4.78444 10.8348 3.95019 9.51309 3.95019 8C3.95019 5.76685 5.76703 3.95001 8.00022 3.95001C10.2334 3.95001 12.0502 5.76685 12.0502 8C12.0502 9.51312 11.216 10.8348 9.98349 11.53C10.3051 11.6717 10.612 11.8478 10.8984 12.0567C12.1624 11.1511 12.9877 9.67016 12.9877 8C12.9877 5.24988 10.7503 3.01251 8.00019 3.01251Z" fill="black"/>
<path d="M13.6568 2.34315C12.1457 0.832155 10.1368 0 8.00002 0C5.86315 0 3.85418 0.832155 2.34315 2.34312C0.832155 3.85418 0 5.86318 0 7.99998C0 9.53083 0.433905 11.0188 1.25475 12.303C1.80378 13.1619 2.50746 13.9039 3.32627 14.4938C3.42656 14.1895 3.5564 13.8961 3.71346 13.6177C1.974 12.2987 0.937498 10.2489 0.937498 7.99998C0.937498 4.10571 4.10574 0.937498 8.00002 0.937498C11.8943 0.937498 15.0625 4.10571 15.0625 7.99998C15.0625 10.2489 14.026 12.2987 12.2865 13.6177C12.4435 13.8961 12.5734 14.1895 12.6737 14.4938C13.4925 13.9039 14.1962 13.162 14.7452 12.303C15.5661 11.0188 16 9.53086 16 8.00002C16 5.86318 15.1678 3.85418 13.6568 2.34315Z" fill="black"/>
</g>
<defs>
<clipPath id="clip0">
<rect width="16" height="16" fill="white"/>
</clipPath>
</defs>
</svg>
