<svg width="30" height="30" viewBox="0 0 30 30" fill="none" xmlns="http://www.w3.org/2000/svg">
<path fill-rule="evenodd" clip-rule="evenodd" d="M8.92152 0H21.026C25.9453 0 29.9474 4.00217 29.9475 8.92152V21.026C29.9475 25.9453 25.9453 29.9475 21.026 29.9475H8.92152C4.00217 29.9475 0 25.9453 0 21.026V8.92152C0 4.00217 4.00217 0 8.92152 0ZM21.026 26.9349C24.2893 26.9349 26.9348 24.2894 26.9348 21.0261V8.92162C26.9348 5.65825 24.2893 3.01282 21.026 3.01282H8.92156C5.65825 3.01282 3.01276 5.65825 3.01276 8.92162V21.0261C3.01276 24.2894 5.65825 26.9349 8.92156 26.9349H21.026Z" fill="#212121" fill-opacity="0.5"/>
<path fill-rule="evenodd" clip-rule="evenodd" d="M7.22852 14.974C7.22852 10.7031 10.7032 7.22852 14.9741 7.22852C19.245 7.22852 22.7196 10.7031 22.7196 14.974C22.7196 19.2448 19.245 22.7195 14.9741 22.7195C10.7032 22.7195 7.22852 19.2448 7.22852 14.974ZM10.2412 14.9741C10.2412 17.588 12.3601 19.7069 14.974 19.7069C17.5878 19.7069 19.7067 17.5879 19.7067 14.9741C19.7067 12.3602 17.5878 10.2413 14.974 10.2413C12.3601 10.2413 10.2412 12.3602 10.2412 14.9741Z" fill="#212121" fill-opacity="0.5"/>
<path d="M22.7344 9.14262C23.7594 9.14262 24.5904 8.31167 24.5904 7.28664C24.5904 6.26161 23.7594 5.43066 22.7344 5.43066C21.7094 5.43066 20.8784 6.26161 20.8784 7.28664C20.8784 8.31167 21.7094 9.14262 22.7344 9.14262Z" fill="#212121" fill-opacity="0.5"/>
</svg>
