<svg width="83" height="40" viewBox="0 0 83 40" fill="none" xmlns="http://www.w3.org/2000/svg">
<path fill-rule="evenodd" clip-rule="evenodd" d="M42.7907 14.0169L41.16 14.9578L39.5264 14.0169V12.132L41.16 11.1901L42.7907 12.132V14.0169ZM38.7837 11.7039V14.4441L41.1597 15.816L43.5329 14.4441V11.7039L41.1597 10.3319L38.7837 11.7039Z" fill="#212121"/>
<path fill-rule="evenodd" clip-rule="evenodd" d="M44.7935 15.1728L41.1594 17.2722L37.5225 15.1728V10.9741L41.1594 8.87566L44.7935 10.9741V15.1728ZM45.5349 10.545L41.1592 8.01936L36.7808 10.545V15.6019L41.1592 18.1304L45.5349 15.6019V10.545Z" fill="#212121"/>
<path fill-rule="evenodd" clip-rule="evenodd" d="M47.5014 9.41161L41.16 5.74735L40.4194 6.17457L43.1286 7.74227L46.7608 9.83882V16.3054L42.3372 18.8282L43.0778 19.2601L47.5014 16.7373V9.41161Z" fill="#212121"/>
<path fill-rule="evenodd" clip-rule="evenodd" d="M35.5583 9.83888L39.9424 7.3076L39.2009 6.8785L34.814 9.41167V16.7364L40.3941 19.9509V22.1161L41.1347 22.5932V19.5349L35.5583 16.3083V9.83888Z" fill="#212121"/>
<path fill-rule="evenodd" clip-rule="evenodd" d="M48.7573 17.4633L44.4023 20.0294L45.1363 20.4576L49.4998 17.8887V13.6909H48.7573V17.4633Z" fill="#212121"/>
<path fill-rule="evenodd" clip-rule="evenodd" d="M34.0322 18.5904L37.433 20.5552L38.182 20.1299L34.7766 18.1651L34.0322 18.5904Z" fill="#212121"/>
<path fill-rule="evenodd" clip-rule="evenodd" d="M32.8154 8.25642V17.8753L33.5588 17.4519V8.68646L41.1593 4.29952L48.7569 8.68646V12.457H49.4993V8.25642L41.1593 3.44039L32.8154 8.25642Z" fill="#212121"/>
<path fill-rule="evenodd" clip-rule="evenodd" d="M43.1958 2.30583L43.1986 2.3096L41.806 1.50786L41.1651 1.13617L41.1633 1.13805V1.13617L40.4839 1.52763L39.1279 2.3096L39.1316 2.30583L30.8188 7.10493V13.4266L31.5613 13.0059V7.53214L37.5564 4.07303L37.5611 4.07585L41.1633 1.99342L44.7663 4.07585L44.771 4.07303L45.999 4.78254L45.9934 4.78537L49.4139 6.76241L49.4224 6.75864L50.7652 7.53214V13.0059H50.7671L51.5067 13.4266V7.10493L43.1958 2.30583Z" fill="#212121"/>
<path fill-rule="evenodd" clip-rule="evenodd" d="M39.0949 0.000101089L31.9536 4.12356L32.6942 4.55266L39.8335 0.428256L39.0949 0.000101089Z" fill="#212121"/>
<path fill-rule="evenodd" clip-rule="evenodd" d="M43.2211 0.000102997L42.4814 0.428258L49.6218 4.55266L50.3642 4.12356L43.2211 0.000102997Z" fill="#212121"/>
<path fill-rule="evenodd" clip-rule="evenodd" d="M9.87955 23.9428L6.43738 33.4704L2.99708 23.9428H0L4.78216 36.3536H8.09259L12.8738 23.9428H9.87955Z" fill="#FFCF01"/>
<path fill-rule="evenodd" clip-rule="evenodd" d="M16.6735 34.1951V33.079C16.282 32.5577 15.5396 32.2801 14.7755 32.2801C13.8467 32.2801 13.0807 32.7807 13.0807 33.637C13.0807 34.4924 13.8467 34.977 14.7755 34.977C15.5396 34.977 16.282 34.7164 16.6735 34.1951ZM16.6734 36.3528V35.4061C16.058 36.1505 14.9994 36.5777 13.8269 36.5777C12.3947 36.5777 10.7188 35.6103 10.7188 33.6013C10.7188 31.4784 12.3947 30.6983 13.8269 30.6983C15.0351 30.6983 16.0777 31.0888 16.6734 31.7955V30.6597C16.6734 29.7479 15.8905 29.1522 14.702 29.1522C13.7525 29.1522 12.8595 29.5249 12.1161 30.2137L11.1845 28.5575C12.2836 27.5704 13.6961 27.1451 15.1085 27.1451C17.1768 27.1451 19.0541 27.9619 19.0541 30.5477V36.3528H16.6734Z" fill="#FFCF01"/>
<path fill-rule="evenodd" clip-rule="evenodd" d="M25.6756 36.3532V30.9208C25.6756 29.6749 25.0264 29.2448 24.0204 29.2448C23.0926 29.2448 22.3831 29.7671 21.9756 30.2875V36.3532H19.6128V27.3666H21.9756V28.5203C22.5515 27.8503 23.6685 27.1445 25.1186 27.1445C27.1107 27.1445 28.0592 28.2606 28.0592 30.0099V36.3532H25.6756Z" fill="#FFCF01"/>
<path fill-rule="evenodd" clip-rule="evenodd" d="M29.6601 34.1022V29.432H28.1733V27.3665H29.6601V24.9105H32.0239V27.3665H33.8476V29.432H32.0239V33.4698C32.0239 34.0467 32.3213 34.4748 32.8426 34.4748C33.1964 34.4748 33.5304 34.3431 33.6612 34.1954L34.1628 36.0002C33.8099 36.3173 33.1776 36.577 32.1905 36.577C30.5362 36.577 29.6601 35.7198 29.6601 34.1022Z" fill="#FFCF01"/>
<path fill-rule="evenodd" clip-rule="evenodd" d="M40.1166 34.1951V33.079C39.727 32.5577 38.9808 32.2801 38.2186 32.2801C37.287 32.2801 36.5257 32.7807 36.5257 33.637C36.5257 34.4924 37.287 34.977 38.2186 34.977C38.9808 34.977 39.727 34.7164 40.1166 34.1951ZM40.1163 36.3528V35.4061C39.5028 36.1505 38.4432 36.5777 37.2698 36.5777C35.8376 36.5777 34.1626 35.6103 34.1626 33.6013C34.1626 31.4784 35.8376 30.6983 37.2698 30.6983C38.479 30.6983 39.5188 31.0888 40.1163 31.7955V30.6597C40.1163 29.7479 39.3353 29.1522 38.144 29.1522C37.1954 29.1522 36.3024 29.5249 35.5581 30.2137L34.6275 28.5575C35.7247 27.5704 37.138 27.1451 38.5533 27.1451C40.6179 27.1451 42.4989 27.9619 42.4989 30.5477V36.3528H40.1163Z" fill="#FFCF01"/>
<path fill-rule="evenodd" clip-rule="evenodd" d="M43.2982 37.7481C43.5034 37.8413 43.8205 37.8977 44.0426 37.8977C44.6561 37.8977 45.0654 37.7293 45.2903 37.2475L45.6235 36.4655L41.978 27.3661H44.5074L46.8533 33.6199L49.2152 27.3661H51.7456L47.5224 37.8234C46.8533 39.5172 45.662 39.9623 44.1179 39.9999C43.8563 39.9999 43.2437 39.9434 42.9651 39.8512L43.2982 37.7481Z" fill="#FFCF01"/>
<path fill-rule="evenodd" clip-rule="evenodd" d="M60.3012 36.3339V28.0982L56.939 36.3339H56.636L53.2587 28.0982V36.3339H52.4692V27.1027H53.6455L56.7884 34.7831L59.9144 27.1027H61.1057V36.3339H60.3012Z" fill="#212121"/>
<path fill-rule="evenodd" clip-rule="evenodd" d="M64.9043 30.1053C63.3262 30.1053 62.5396 31.4886 62.484 32.6507H67.3434C67.3274 31.5178 66.5793 30.1053 64.9043 30.1053ZM61.7085 32.9838C61.7085 31.0463 63.0654 29.4814 64.9192 29.4814C66.9546 29.4814 68.0734 31.0877 68.0734 33.0262V33.22H62.4839C62.5526 34.672 63.5227 35.8755 65.0989 35.8755C65.9439 35.8755 66.7193 35.5574 67.2849 34.9486L67.6594 35.4191C66.995 36.1108 66.151 36.4994 65.0434 36.4994C63.0918 36.4994 61.7085 35.0465 61.7085 32.9838Z" fill="#212121"/>
<path fill-rule="evenodd" clip-rule="evenodd" d="M73.9255 34.6573V31.3515C73.5425 30.6994 72.6683 30.133 71.7264 30.133C70.2472 30.133 69.388 31.3779 69.388 32.9983C69.388 34.6168 70.2472 35.8486 71.7264 35.8486C72.6683 35.8486 73.5425 35.2934 73.9255 34.6573ZM73.9252 36.3342V35.2671C73.4576 35.9606 72.6003 36.4998 71.6048 36.4998C69.83 36.4998 68.6274 35.1428 68.6274 32.9983C68.6274 30.882 69.83 29.4818 71.6048 29.4818C72.5589 29.4818 73.4011 29.9664 73.9252 30.7277V27.1029H74.6611V36.3342H73.9252Z" fill="#212121"/>
<mask id="mask0" mask-type="alpha" maskUnits="userSpaceOnUse" x="0" y="0" width="83" height="40">
<path fill-rule="evenodd" clip-rule="evenodd" d="M0.000976562 40H82.3271V0H0.000976562V40Z" fill="white"/>
</mask>
<g mask="url(#mask0)">
<path fill-rule="evenodd" clip-rule="evenodd" d="M75.5166 36.3339H76.2355V29.648H75.5166V36.3339ZM75.3208 28.0418C75.3208 27.7359 75.5862 27.5026 75.875 27.5026C76.1809 27.5026 76.4283 27.7359 76.4283 28.0418C76.4283 28.3476 76.1809 28.5969 75.875 28.5969C75.5862 28.5969 75.3208 28.3476 75.3208 28.0418Z" fill="#212121"/>
<path fill-rule="evenodd" clip-rule="evenodd" d="M81.6076 35.0175V33.5505C81.138 32.9276 80.3899 32.6227 79.5882 32.6227C78.4947 32.6227 77.7607 33.3284 77.7607 34.2845C77.7607 35.2264 78.4947 35.9312 79.5882 35.9312C80.3899 35.9312 81.138 35.6273 81.6076 35.0175ZM81.6076 36.334V35.5426C81.0138 36.1947 80.2657 36.4996 79.3389 36.4996C78.1899 36.4996 77.0005 35.7101 77.0005 34.2704C77.0005 32.8175 78.1758 32.0562 79.3389 32.0562C80.2657 32.0562 81.028 32.362 81.6076 33.0104V31.6553C81.6076 30.6579 80.8049 30.1187 79.8225 30.1187C78.9794 30.1187 78.3282 30.4085 77.7204 31.1001L77.3185 30.6042C78.0121 29.8561 78.7865 29.4816 79.8922 29.4816C81.2491 29.4816 82.3265 30.1328 82.3265 31.6271V36.334H81.6076Z" fill="#212121"/>
</g>
</svg>
