<svg width="16" height="16" viewBox="0 0 16 16" fill="none" xmlns="http://www.w3.org/2000/svg">
<g clip-path="url(#clip0)">
<path d="M14.102 11.0797C16.6332 8.54839 16.6332 4.42959 14.102 1.89825C11.5706 -0.633077 7.45188 -0.633077 4.9206 1.89825C2.77311 4.04575 2.44787 7.23961 3.94401 9.73368C3.94401 9.73368 4.05148 9.91397 3.90634 10.059C3.0783 10.887 0.594023 13.3713 0.594023 13.3713C-0.0652645 14.0306 -0.222213 14.9524 0.36244 15.5372L0.463104 15.6377C1.04776 16.2225 1.96966 16.0656 2.62889 15.4063C2.62889 15.4063 5.10791 12.9272 5.93425 12.1009C6.08635 11.9488 6.2666 12.0563 6.2666 12.0563C8.76061 13.5524 11.9545 13.2272 14.102 11.0797ZM6.11918 9.88109C4.24879 8.0107 4.24884 4.96739 6.11923 3.09699C7.98963 1.22665 11.0329 1.2266 12.9033 3.09699C14.7737 4.96733 14.7737 8.0107 12.9033 9.88109C11.0329 11.7514 7.98963 11.7514 6.11918 9.88109Z" fill="black"/>
<path d="M6.53275 6.10394C6.44569 6.10394 6.3572 6.08683 6.27189 6.0508C5.93114 5.90658 5.77172 5.51341 5.91593 5.17261C6.82237 3.03054 9.30247 2.0253 11.4445 2.93173C11.7852 3.07595 11.9447 3.46912 11.8005 3.80992C11.6562 4.15072 11.2631 4.31004 10.9222 4.16587C9.46076 3.54746 7.7685 4.23334 7.15013 5.69479C7.04194 5.95039 6.79382 6.10394 6.53275 6.10394Z" fill="black"/>
</g>
<defs>
<clipPath id="clip0">
<rect width="16" height="16" fill="white"/>
</clipPath>
</defs>
</svg>
