<svg width="16" height="16" viewBox="0 0 16 16" fill="none" xmlns="http://www.w3.org/2000/svg">
<g clip-path="url(#clip0)">
<path d="M14.5962 6.42137L8.35593 0.388524C7.9879 0.0336522 7.39255 0.037851 7.02933 0.38807C6.66405 0.742066 6.66405 1.31684 7.02933 1.67039L13.2705 7.70281C13.6361 8.05623 14.2305 8.05623 14.5962 7.70281C14.9628 7.34842 14.9628 6.77569 14.5962 6.42137Z" fill="#212121"/>
<path d="M6.56629 2.50433L6.51932 2.73191C6.18847 4.33161 5.38441 5.85136 4.29688 7.0831L7.6921 10.365C8.96623 9.31398 10.5168 8.51588 12.1718 8.19569L12.4077 8.15029L6.56629 2.50433Z" fill="#212121"/>
<path d="M3.67437 7.76288L1.35396 10.0054C0.80568 10.5354 0.803399 11.3958 1.35396 11.928L2.67965 13.2094C3.22793 13.7394 4.11806 13.7416 4.66863 13.2094L6.98882 10.9667L3.67437 7.76288ZM4.00581 11.2873C3.82272 11.4643 3.52606 11.4643 3.34297 11.2873C3.15987 11.1103 3.15987 10.8235 3.34297 10.6466L4.00581 10.0058C4.18891 9.82885 4.48556 9.82885 4.66866 10.0058C4.85175 10.1828 4.85175 10.4696 4.66866 10.6466L4.00581 11.2873Z" fill="#212121"/>
<path d="M8.9458 13.4505L9.58346 12.8342C10.1341 12.302 10.1322 11.4416 9.58349 10.9121L9.10987 10.4539C8.84808 10.6239 8.59808 10.8086 8.35502 11.0056L8.92065 11.5532C9.1033 11.7289 9.10458 12.0147 8.92065 12.1935L8.27246 12.82L7.31989 11.9279L5.99414 13.2094L8.12093 15.2015C8.48386 15.5532 9.07977 15.5552 9.44615 15.201C9.8119 14.8475 9.8119 14.2727 9.44615 13.9191L8.9458 13.4505Z" fill="#212121"/>
<path d="M10.8394 3.05176e-05C10.5803 3.05176e-05 10.3706 0.202689 10.3706 0.453135V1.35934C10.3706 1.60979 10.5803 1.81245 10.8394 1.81245C11.0985 1.81245 11.3081 1.60979 11.3081 1.35934V0.453135C11.3081 0.202689 11.0985 3.05176e-05 10.8394 3.05176e-05Z" fill="#212121"/>
<path d="M14.5894 3.62486H13.6519C13.3928 3.62486 13.1831 3.82774 13.1831 4.07845C13.1831 4.32916 13.3928 4.53204 13.6519 4.53204H14.5894C14.8485 4.53204 15.0581 4.32916 15.0581 4.07845C15.0581 3.82774 14.8485 3.62486 14.5894 3.62486Z" fill="#212121"/>
<path d="M13.9833 1.03993C13.8002 0.86295 13.5035 0.86295 13.3204 1.03993L12.3829 1.94614C12.1998 2.12312 12.1998 2.40988 12.3829 2.58686C12.566 2.76384 12.8627 2.76387 13.0458 2.58686L13.9833 1.68065C14.1664 1.50367 14.1664 1.21692 13.9833 1.03993Z" fill="#212121"/>
</g>
<defs>
<clipPath id="clip0">
<rect width="16" height="15.4659" fill="white"/>
</clipPath>
</defs>
</svg>
