<svg width="60" height="60" viewBox="0 0 60 60" fill="none" xmlns="http://www.w3.org/2000/svg">
<g clip-path="url(#clip0)">
<path d="M58.2841 30.9328H15.9511C15.0031 30.9328 14.2349 30.1644 14.2349 29.2166V9.44253C14.2349 8.4946 15.0033 7.72632 15.9511 7.72632H58.2841C59.2321 7.72632 60.0003 8.49472 60.0003 9.44253V29.2166C60.0003 30.1644 59.2319 30.9328 58.2841 30.9328Z" fill="url(#paint0_linear)"/>
<path d="M57.4148 12.633C56.1732 12.5686 55.1582 11.5511 55.0936 10.3095C55.0795 10.0348 55.1116 9.76988 55.1811 9.52051H19.0535C19.1229 9.76977 19.1552 10.0347 19.1409 10.3094C19.0763 11.551 18.0615 12.5686 16.8199 12.6329C16.3952 12.6549 15.9926 12.5687 15.6372 12.3996V26.2599C15.993 26.0908 16.3958 26.0044 16.8207 26.0267C18.0623 26.0915 19.0769 27.1093 19.141 28.351C19.1551 28.6255 19.1229 28.8901 19.0535 29.1391H55.1811C55.1116 28.8901 55.0795 28.6253 55.0935 28.3509C55.1576 27.1092 56.1722 26.0914 57.4138 26.0267C57.8389 26.0044 58.2416 26.0908 58.5973 26.2599V12.3998C58.2419 12.5688 57.8395 12.6552 57.4148 12.633Z" fill="url(#paint1_linear)"/>
<path d="M37.1176 25.2719C40.3995 25.2719 43.06 22.6114 43.06 19.3296C43.06 16.0477 40.3995 13.3872 37.1176 13.3872C33.8358 13.3872 31.1753 16.0477 31.1753 19.3296C31.1753 22.6114 33.8358 25.2719 37.1176 25.2719Z" fill="url(#paint2_linear)"/>
<path d="M28.9491 11.7034H19.8232V14.3288H28.9491V11.7034Z" fill="url(#paint3_linear)"/>
<path d="M54.4105 24.3306H45.2847V26.956H54.4105V24.3306Z" fill="url(#paint4_linear)"/>
<path d="M15.9507 30.9329H57.0835L49.2253 23.0747C48.5936 22.36 47.6707 21.9087 46.6419 21.9087H14.2344V29.2167C14.2344 30.1645 15.0028 30.9329 15.9507 30.9329Z" fill="url(#paint5_linear)"/>
<path d="M46.6419 52.2736H3.44719C1.54336 52.2736 0 50.7303 0 48.8264V25.3559C0 23.4521 1.54336 21.9087 3.44719 21.9087H46.6419C48.5457 21.9087 50.0891 23.4521 50.0891 25.3559V48.8263C50.0891 50.7303 48.5457 52.2736 46.6419 52.2736Z" fill="url(#paint6_linear)"/>
<path d="M50.0895 27.3225H0V33.5625H50.0895V27.3225Z" fill="url(#paint7_linear)"/>
<path d="M0 41.7981V48.8265C0 50.7304 1.54336 52.2737 3.44719 52.2737H46.6419C48.5457 52.2737 50.0891 50.7304 50.0891 48.8265V41.7981H0Z" fill="url(#paint8_linear)"/>
<path d="M35.0299 36.5166H4.54639V38.9406H35.0299V36.5166Z" fill="url(#paint9_linear)"/>
<path d="M35.0299 41.6284H4.54639V44.0524H35.0299V41.6284Z" fill="url(#paint10_linear)"/>
<path d="M17.8864 46.7397H4.54639V49.1638H17.8864V46.7397Z" fill="url(#paint11_linear)"/>
<path d="M58.5447 42.371H43.0779C42.7483 42.371 42.481 42.1037 42.481 41.7741V39.6558C42.481 39.3261 42.7483 39.0588 43.0779 39.0588H58.5445C58.8742 39.0588 59.1415 39.3261 59.1415 39.6558V41.7741C59.1415 42.1037 58.8744 42.371 58.5447 42.371Z" fill="url(#paint12_linear)"/>
<path d="M44.3268 42.3712H57.2952C57.5981 42.3712 57.8436 42.1257 57.8436 41.8227V39.6075C57.8436 39.3046 57.5981 39.0591 57.2952 39.0591H44.3268C44.0238 39.0591 43.7783 39.3046 43.7783 39.6075V41.8227C43.7782 42.1257 44.0237 42.3712 44.3268 42.3712Z" fill="url(#paint13_linear)"/>
<path d="M55.8371 42.3712H45.7858C45.5177 42.3712 45.3003 42.1538 45.3003 41.8856V39.5446C45.3003 39.2765 45.5177 39.0591 45.7858 39.0591H55.8371C56.1052 39.0591 56.3226 39.2765 56.3226 39.5446V41.8856C56.3226 42.1538 56.1052 42.3712 55.8371 42.3712Z" fill="url(#paint14_linear)"/>
<path d="M47.182 42.371H54.4401C54.6699 42.371 54.8561 42.1848 54.8561 41.955V39.4749C54.8561 39.2451 54.6699 39.0588 54.4401 39.0588H47.182C46.9522 39.0588 46.7661 39.2451 46.7661 39.4749V41.955C46.7661 42.1848 46.9522 42.371 47.182 42.371Z" fill="url(#paint15_linear)"/>
<path d="M52.9612 42.371H48.6619C48.4822 42.371 48.3364 42.2254 48.3364 42.0456V39.3843C48.3364 39.2046 48.4821 39.0588 48.6619 39.0588H52.9612C53.1409 39.0588 53.2867 39.2045 53.2867 39.3843V42.0456C53.2867 42.2255 53.141 42.371 52.9612 42.371Z" fill="url(#paint16_linear)"/>
<path d="M50.0791 42.371H51.5432C51.6535 42.371 51.7429 42.2816 51.7429 42.1713V39.2585C51.7429 39.1483 51.6535 39.0588 51.5432 39.0588H50.0791C49.9688 39.0588 49.8794 39.1483 49.8794 39.2585V42.1713C49.8795 42.2816 49.9688 42.371 50.0791 42.371Z" fill="url(#paint17_linear)"/>
<path d="M42.481 40.3257V41.7738C42.481 42.1034 42.7483 42.3707 43.0779 42.3707H44.3271H45.7858H47.1824H48.6617H50.0793H51.5434H52.961H54.4403H55.8369H57.2956H58.5448C58.8744 42.3707 59.1417 42.1034 59.1417 41.7738V40.3257H42.481Z" fill="url(#paint18_linear)"/>
<path d="M58.5447 45.6718H43.0779C42.7483 45.6718 42.481 45.4045 42.481 45.0749V42.9566C42.481 42.6269 42.7483 42.3596 43.0779 42.3596H58.5445C58.8742 42.3596 59.1415 42.6269 59.1415 42.9566V45.0749C59.1415 45.4047 58.8744 45.6718 58.5447 45.6718Z" fill="url(#paint19_linear)"/>
<path d="M44.3268 45.6716H57.2952C57.5981 45.6716 57.8436 45.4261 57.8436 45.1231V42.9081C57.8436 42.6051 57.5981 42.3596 57.2952 42.3596H44.3268C44.0238 42.3596 43.7783 42.6051 43.7783 42.9081V45.1233C43.7782 45.4261 44.0237 45.6716 44.3268 45.6716Z" fill="url(#paint20_linear)"/>
<path d="M55.8371 45.6719H45.7858C45.5177 45.6719 45.3003 45.4546 45.3003 45.1864V42.8454C45.3003 42.5772 45.5177 42.3599 45.7858 42.3599H55.8371C56.1052 42.3599 56.3226 42.5772 56.3226 42.8454V45.1864C56.3226 45.4547 56.1052 45.6719 55.8371 45.6719Z" fill="url(#paint21_linear)"/>
<path d="M47.182 45.6719H54.4401C54.6699 45.6719 54.8561 45.4857 54.8561 45.2559V42.7758C54.8561 42.546 54.6699 42.3599 54.4401 42.3599H47.182C46.9522 42.3599 46.7661 42.5461 46.7661 42.7758V45.2559C46.7661 45.4858 46.9522 45.6719 47.182 45.6719Z" fill="url(#paint22_linear)"/>
<path d="M52.9612 45.6718H48.6619C48.4822 45.6718 48.3364 45.5261 48.3364 45.3464V42.6851C48.3364 42.5054 48.4821 42.3596 48.6619 42.3596H52.9612C53.1409 42.3596 53.2867 42.5053 53.2867 42.6851V45.3464C53.2867 45.5263 53.141 45.6718 52.9612 45.6718Z" fill="url(#paint23_linear)"/>
<path d="M50.0791 45.6718H51.5432C51.6535 45.6718 51.7429 45.5824 51.7429 45.4721V42.5593C51.7429 42.449 51.6535 42.3596 51.5432 42.3596H50.0791C49.9688 42.3596 49.8794 42.449 49.8794 42.5593V45.4721C49.8795 45.5825 49.9688 45.6718 50.0791 45.6718Z" fill="url(#paint24_linear)"/>
<path d="M42.481 43.6265V45.0745C42.481 45.4042 42.7483 45.6715 43.0779 45.6715H44.3271H45.7858H47.1824H48.6617H50.0793H51.5434H52.961H54.4403H55.8369H57.2956H58.5448C58.8744 45.6715 59.1417 45.4042 59.1417 45.0745V43.6265H42.481Z" fill="url(#paint25_linear)"/>
<path d="M58.5447 48.9728H43.0779C42.7483 48.9728 42.481 48.7055 42.481 48.3759V46.2576C42.481 45.928 42.7483 45.6606 43.0779 45.6606H58.5445C58.8742 45.6606 59.1415 45.928 59.1415 46.2576V48.3759C59.1415 48.7056 58.8744 48.9728 58.5447 48.9728Z" fill="url(#paint26_linear)"/>
<path d="M44.3268 48.9725H57.2952C57.5981 48.9725 57.8436 48.727 57.8436 48.424V46.2088C57.8436 45.9059 57.5981 45.6604 57.2952 45.6604H44.3268C44.0238 45.6604 43.7783 45.9059 43.7783 46.2088V48.424C43.7782 48.727 44.0237 48.9725 44.3268 48.9725Z" fill="url(#paint27_linear)"/>
<path d="M55.8371 48.9725H45.7858C45.5177 48.9725 45.3003 48.7551 45.3003 48.487V46.1459C45.3003 45.8778 45.5177 45.6604 45.7858 45.6604H55.8371C56.1052 45.6604 56.3226 45.8778 56.3226 46.1459V48.487C56.3226 48.7551 56.1052 48.9725 55.8371 48.9725Z" fill="url(#paint28_linear)"/>
<path d="M47.182 48.9725H54.4401C54.6699 48.9725 54.8561 48.7863 54.8561 48.5566V46.0764C54.8561 45.8466 54.6699 45.6604 54.4401 45.6604H47.182C46.9522 45.6604 46.7661 45.8466 46.7661 46.0764V48.5566C46.7661 48.7863 46.9522 48.9725 47.182 48.9725Z" fill="url(#paint29_linear)"/>
<path d="M52.9612 48.9728H48.6619C48.4822 48.9728 48.3364 48.8272 48.3364 48.6474V45.9861C48.3364 45.8064 48.4821 45.6606 48.6619 45.6606H52.9612C53.1409 45.6606 53.2867 45.8063 53.2867 45.9861V48.6474C53.2867 48.8273 53.141 48.9728 52.9612 48.9728Z" fill="url(#paint30_linear)"/>
<path d="M50.0791 48.9728H51.5432C51.6535 48.9728 51.7429 48.8834 51.7429 48.7731V45.8603C51.7429 45.7501 51.6535 45.6606 51.5432 45.6606H50.0791C49.9688 45.6606 49.8794 45.7501 49.8794 45.8603V48.7731C49.8795 48.8834 49.9688 48.9728 50.0791 48.9728Z" fill="url(#paint31_linear)"/>
<path d="M42.481 46.9275V48.3756C42.481 48.7052 42.7483 48.9725 43.0779 48.9725H44.3271H45.7858H47.1824H48.6617H50.0793H51.5434H52.961H54.4403H55.8369H57.2956H58.5448C58.8744 48.9725 59.1417 48.7052 59.1417 48.3756V46.9275H42.481Z" fill="url(#paint32_linear)"/>
<path d="M58.5447 52.2734H43.0779C42.7483 52.2734 42.481 52.0061 42.481 51.6764V49.5581C42.481 49.2285 42.7483 48.9612 43.0779 48.9612H58.5445C58.8742 48.9612 59.1415 49.2285 59.1415 49.5581V51.6764C59.1415 52.0062 58.8744 52.2734 58.5447 52.2734Z" fill="url(#paint33_linear)"/>
<path d="M44.3268 52.2735H57.2952C57.5981 52.2735 57.8436 52.028 57.8436 51.7251V49.5099C57.8436 49.2069 57.5981 48.9614 57.2952 48.9614H44.3268C44.0238 48.9614 43.7783 49.2069 43.7783 49.5099V51.7251C43.7782 52.0279 44.0237 52.2735 44.3268 52.2735Z" fill="url(#paint34_linear)"/>
<path d="M55.8371 52.2734H45.7858C45.5177 52.2734 45.3003 52.056 45.3003 51.7879V49.4469C45.3003 49.1788 45.5177 48.9614 45.7858 48.9614H55.8371C56.1052 48.9614 56.3226 49.1788 56.3226 49.4469V51.788C56.3226 52.056 56.1052 52.2734 55.8371 52.2734Z" fill="url(#paint35_linear)"/>
<path d="M47.182 52.2735H54.4401C54.6699 52.2735 54.8561 52.0873 54.8561 51.8575V49.3773C54.8561 49.1475 54.6699 48.9614 54.4401 48.9614H47.182C46.9522 48.9614 46.7661 49.1476 46.7661 49.3773V51.8575C46.7661 52.0873 46.9522 52.2735 47.182 52.2735Z" fill="url(#paint36_linear)"/>
<path d="M52.9612 52.2734H48.6619C48.4822 52.2734 48.3364 52.1277 48.3364 51.9479V49.2866C48.3364 49.107 48.4821 48.9612 48.6619 48.9612H52.9612C53.1409 48.9612 53.2867 49.1068 53.2867 49.2866V51.9479C53.2867 52.1277 53.141 52.2734 52.9612 52.2734Z" fill="url(#paint37_linear)"/>
<path d="M50.0791 52.2735H51.5432C51.6535 52.2735 51.7429 52.1841 51.7429 52.0738V49.1611C51.7429 49.0508 51.6535 48.9614 51.5432 48.9614H50.0791C49.9688 48.9614 49.8794 49.0508 49.8794 49.1611V52.0739C49.8795 52.1842 49.9688 52.2735 50.0791 52.2735Z" fill="url(#paint38_linear)"/>
<path d="M42.481 50.2283V51.6764C42.481 52.006 42.7483 52.2733 43.0779 52.2733H44.3271H45.7858H47.1824H48.6617H50.0793H51.5434H52.961H54.4403H55.8369H57.2956H58.5448C58.8744 52.2733 59.1417 52.006 59.1417 51.6764V50.2283H42.481Z" fill="url(#paint39_linear)"/>
</g>
<defs>
<linearGradient id="paint0_linear" x1="14.2345" y1="19.3305" x2="59.999" y2="19.3305" gradientUnits="userSpaceOnUse">
<stop stop-color="#A7F3CE"/>
<stop offset="1" stop-color="#61DB99"/>
</linearGradient>
<linearGradient id="paint1_linear" x1="25.1618" y1="7.3763" x2="54.2835" y2="36.4974" gradientUnits="userSpaceOnUse">
<stop stop-color="#61DB99"/>
<stop offset="1" stop-color="#009E74"/>
</linearGradient>
<linearGradient id="paint2_linear" x1="33.5807" y1="15.7939" x2="42.1947" y2="24.409" gradientUnits="userSpaceOnUse">
<stop stop-color="#A7F3CE"/>
<stop offset="1" stop-color="#61DB99"/>
</linearGradient>
<linearGradient id="paint3_linear" x1="21.9132" y1="10.5446" x2="27.9366" y2="16.568" gradientUnits="userSpaceOnUse">
<stop stop-color="#A7F3CE"/>
<stop offset="1" stop-color="#61DB99"/>
</linearGradient>
<linearGradient id="paint4_linear" x1="47.3742" y1="23.1713" x2="53.3965" y2="29.1947" gradientUnits="userSpaceOnUse">
<stop stop-color="#A7F3CE"/>
<stop offset="1" stop-color="#61DB99"/>
</linearGradient>
<linearGradient id="paint5_linear" x1="41.1699" y1="42.4885" x2="34.9853" y2="28.7677" gradientUnits="userSpaceOnUse">
<stop stop-color="#61DB99" stop-opacity="0"/>
<stop offset="1" stop-color="#009E74"/>
</linearGradient>
<linearGradient id="paint6_linear" x1="19.1443" y1="37.0917" x2="65.9668" y2="37.0917" gradientUnits="userSpaceOnUse">
<stop stop-color="#F2F2F2"/>
<stop offset="1" stop-color="#C3C3C3"/>
</linearGradient>
<linearGradient id="paint7_linear" x1="20.0535" y1="21.0058" x2="35.3802" y2="49.9887" gradientUnits="userSpaceOnUse">
<stop stop-color="#777777"/>
<stop offset="1" stop-color="#3B4041"/>
</linearGradient>
<linearGradient id="paint8_linear" x1="25.044" y1="47.2451" x2="25.044" y2="56.5202" gradientUnits="userSpaceOnUse">
<stop stop-color="#C3C3C3" stop-opacity="0"/>
<stop offset="1" stop-color="#777777"/>
</linearGradient>
<linearGradient id="paint9_linear" x1="4.54624" y1="37.7291" x2="35.0291" y2="37.7291" gradientUnits="userSpaceOnUse">
<stop stop-color="#62E1FB"/>
<stop offset="1" stop-color="#00A2F3"/>
</linearGradient>
<linearGradient id="paint10_linear" x1="4.54624" y1="42.8408" x2="35.0291" y2="42.8408" gradientUnits="userSpaceOnUse">
<stop stop-color="#62E1FB"/>
<stop offset="1" stop-color="#00A2F3"/>
</linearGradient>
<linearGradient id="paint11_linear" x1="4.54624" y1="47.952" x2="17.886" y2="47.952" gradientUnits="userSpaceOnUse">
<stop stop-color="#62E1FB"/>
<stop offset="1" stop-color="#00A2F3"/>
</linearGradient>
<linearGradient id="paint12_linear" x1="49.7731" y1="39.9253" x2="59.3882" y2="47.251" gradientUnits="userSpaceOnUse">
<stop stop-color="#FFF465"/>
<stop offset="1" stop-color="#FFE600"/>
</linearGradient>
<linearGradient id="paint13_linear" x1="51.7046" y1="40.0339" x2="43.4083" y2="46.3549" gradientUnits="userSpaceOnUse">
<stop stop-color="#FFF465"/>
<stop offset="1" stop-color="#FFE600"/>
</linearGradient>
<linearGradient id="paint14_linear" x1="50.0817" y1="40.1604" x2="56.8369" y2="45.3073" gradientUnits="userSpaceOnUse">
<stop stop-color="#FFF465"/>
<stop offset="1" stop-color="#FFE600"/>
</linearGradient>
<linearGradient id="paint15_linear" x1="51.3788" y1="40.282" x2="46.1048" y2="44.3007" gradientUnits="userSpaceOnUse">
<stop stop-color="#FFF465"/>
<stop offset="1" stop-color="#FFE600"/>
</linearGradient>
<linearGradient id="paint16_linear" x1="50.4119" y1="40.4116" x2="54.1082" y2="43.2292" gradientUnits="userSpaceOnUse">
<stop stop-color="#FFF465"/>
<stop offset="1" stop-color="#FFE600"/>
</linearGradient>
<linearGradient id="paint17_linear" x1="51.0437" y1="40.5374" x2="48.8779" y2="42.188" gradientUnits="userSpaceOnUse">
<stop stop-color="#FFF465"/>
<stop offset="1" stop-color="#FFE600"/>
</linearGradient>
<linearGradient id="paint18_linear" x1="50.8102" y1="41.0155" x2="50.8102" y2="42.6402" gradientUnits="userSpaceOnUse">
<stop stop-color="#FFE600" stop-opacity="0"/>
<stop offset="1" stop-color="#F59500"/>
</linearGradient>
<linearGradient id="paint19_linear" x1="49.7732" y1="43.2262" x2="59.3883" y2="50.5508" gradientUnits="userSpaceOnUse">
<stop stop-color="#FFF465"/>
<stop offset="1" stop-color="#FFE600"/>
</linearGradient>
<linearGradient id="paint20_linear" x1="51.7044" y1="43.3344" x2="43.4082" y2="49.6554" gradientUnits="userSpaceOnUse">
<stop stop-color="#FFF465"/>
<stop offset="1" stop-color="#FFE600"/>
</linearGradient>
<linearGradient id="paint21_linear" x1="50.0819" y1="43.4612" x2="56.837" y2="48.6082" gradientUnits="userSpaceOnUse">
<stop stop-color="#FFF465"/>
<stop offset="1" stop-color="#FFE600"/>
</linearGradient>
<linearGradient id="paint22_linear" x1="51.3787" y1="43.583" x2="46.1047" y2="47.6017" gradientUnits="userSpaceOnUse">
<stop stop-color="#FFF465"/>
<stop offset="1" stop-color="#FFE600"/>
</linearGradient>
<linearGradient id="paint23_linear" x1="50.412" y1="43.7124" x2="54.1084" y2="46.53" gradientUnits="userSpaceOnUse">
<stop stop-color="#FFF465"/>
<stop offset="1" stop-color="#FFE600"/>
</linearGradient>
<linearGradient id="paint24_linear" x1="51.0435" y1="43.8382" x2="48.8777" y2="45.4888" gradientUnits="userSpaceOnUse">
<stop stop-color="#FFF465"/>
<stop offset="1" stop-color="#FFE600"/>
</linearGradient>
<linearGradient id="paint25_linear" x1="50.8102" y1="44.3166" x2="50.8102" y2="45.9413" gradientUnits="userSpaceOnUse">
<stop stop-color="#FFE600" stop-opacity="0"/>
<stop offset="1" stop-color="#F59500"/>
</linearGradient>
<linearGradient id="paint26_linear" x1="49.7733" y1="46.5273" x2="59.3884" y2="53.8518" gradientUnits="userSpaceOnUse">
<stop stop-color="#FFF465"/>
<stop offset="1" stop-color="#FFE600"/>
</linearGradient>
<linearGradient id="paint27_linear" x1="51.7043" y1="46.6353" x2="43.408" y2="52.9563" gradientUnits="userSpaceOnUse">
<stop stop-color="#FFF465"/>
<stop offset="1" stop-color="#FFE600"/>
</linearGradient>
<linearGradient id="paint28_linear" x1="50.0814" y1="46.7613" x2="56.8366" y2="51.9083" gradientUnits="userSpaceOnUse">
<stop stop-color="#FFF465"/>
<stop offset="1" stop-color="#FFE600"/>
</linearGradient>
<linearGradient id="paint29_linear" x1="51.3786" y1="46.8836" x2="46.1046" y2="50.9023" gradientUnits="userSpaceOnUse">
<stop stop-color="#FFF465"/>
<stop offset="1" stop-color="#FFE600"/>
</linearGradient>
<linearGradient id="paint30_linear" x1="50.4121" y1="47.0136" x2="54.1085" y2="49.83" gradientUnits="userSpaceOnUse">
<stop stop-color="#FFF465"/>
<stop offset="1" stop-color="#FFE600"/>
</linearGradient>
<linearGradient id="paint31_linear" x1="51.0435" y1="47.1394" x2="48.8777" y2="48.7888" gradientUnits="userSpaceOnUse">
<stop stop-color="#FFF465"/>
<stop offset="1" stop-color="#FFE600"/>
</linearGradient>
<linearGradient id="paint32_linear" x1="50.8102" y1="47.6166" x2="50.8102" y2="49.2425" gradientUnits="userSpaceOnUse">
<stop stop-color="#FFE600" stop-opacity="0"/>
<stop offset="1" stop-color="#F59500"/>
</linearGradient>
<linearGradient id="paint33_linear" x1="49.773" y1="49.8272" x2="59.388" y2="57.153" gradientUnits="userSpaceOnUse">
<stop stop-color="#FFF465"/>
<stop offset="1" stop-color="#FFE600"/>
</linearGradient>
<linearGradient id="paint34_linear" x1="51.7046" y1="49.9357" x2="43.4083" y2="56.2579" gradientUnits="userSpaceOnUse">
<stop stop-color="#FFF465"/>
<stop offset="1" stop-color="#FFE600"/>
</linearGradient>
<linearGradient id="paint35_linear" x1="50.0816" y1="50.0622" x2="56.8367" y2="55.2092" gradientUnits="userSpaceOnUse">
<stop stop-color="#FFF465"/>
<stop offset="1" stop-color="#FFE600"/>
</linearGradient>
<linearGradient id="paint36_linear" x1="51.3785" y1="50.1846" x2="46.1044" y2="54.2022" gradientUnits="userSpaceOnUse">
<stop stop-color="#FFF465"/>
<stop offset="1" stop-color="#FFE600"/>
</linearGradient>
<linearGradient id="paint37_linear" x1="50.4123" y1="50.3141" x2="54.1086" y2="53.1305" gradientUnits="userSpaceOnUse">
<stop stop-color="#FFF465"/>
<stop offset="1" stop-color="#FFE600"/>
</linearGradient>
<linearGradient id="paint38_linear" x1="51.0434" y1="50.44" x2="48.8775" y2="52.0894" gradientUnits="userSpaceOnUse">
<stop stop-color="#FFF465"/>
<stop offset="1" stop-color="#FFE600"/>
</linearGradient>
<linearGradient id="paint39_linear" x1="50.8102" y1="50.9177" x2="50.8102" y2="52.5435" gradientUnits="userSpaceOnUse">
<stop stop-color="#FFE600" stop-opacity="0"/>
<stop offset="1" stop-color="#F59500"/>
</linearGradient>
<clipPath id="clip0">
<rect width="60" height="60" fill="white"/>
</clipPath>
</defs>
</svg>
