<svg width="60" height="60" viewBox="0 0 60 60" fill="none" xmlns="http://www.w3.org/2000/svg">
<g clip-path="url(#clip0)">
<path d="M11.2688 35.0264H2.11328L3.72473 39.5705C4.59227 42.017 5.03559 44.5934 5.03559 47.1891V47.6666C5.03559 50.1948 7.08508 52.2444 9.6134 52.2444C12.1416 52.2444 14.1912 50.1949 14.1912 47.6666V47.1891C14.1912 44.5934 13.7479 42.017 12.8804 39.5705L11.2688 35.0264Z" fill="url(#paint0_linear)"/>
<path d="M6.67471 40.8396C7.33741 42.7083 7.67596 44.6766 7.67596 46.6594V47.0627C7.67596 48.0839 8.50389 48.9118 9.52507 48.9118C10.5462 48.9118 11.3742 48.0839 11.3742 47.0627V46.6594C11.3742 44.6766 11.0355 42.7083 10.3729 40.8396L9.78839 39.6024C9.54909 39.096 9.03932 38.7729 8.47917 38.7729H7.98393C6.92163 38.7731 6.22085 39.8791 6.67471 40.8396Z" fill="url(#paint1_linear)"/>
<path d="M11.2688 35.0264H2.11328L2.23352 35.3653L14.1911 47.3229V47.1894C14.1911 44.5937 13.7478 42.0172 12.8802 39.5708L11.2688 35.0264Z" fill="url(#paint2_linear)"/>
<path d="M0 31.8064V22.8908C0 20.6937 1.78102 18.9126 3.97816 18.9126H16.517C18.714 18.9126 20.4952 20.6936 20.4952 22.8908V31.8064C20.4952 34.0034 18.7141 35.7846 16.517 35.7846H3.97816C1.78102 35.7846 0 34.0035 0 31.8064Z" fill="url(#paint3_linear)"/>
<path d="M38.1778 45.5846C30.4214 41.7934 22.4729 38.4638 14.3212 35.6065C13.2206 35.2209 12.4839 34.1828 12.4839 33.0167V21.6804C12.4839 20.5143 13.2209 19.4763 14.3212 19.0906C22.4731 16.2334 30.4215 12.9038 38.1778 9.11254C39.876 8.2825 41.8864 9.36789 42.1155 11.2439C43.4257 21.9718 43.4256 32.7257 42.1155 43.4533C41.8864 45.3293 39.8759 46.4145 38.1778 45.5846Z" fill="url(#paint4_linear)"/>
<path d="M41.4874 44.8929L15.3279 18.7334C14.9925 18.8528 14.6574 18.9727 14.3212 19.0905C13.2206 19.4761 12.4839 20.5142 12.4839 21.6803V33.0166C12.4839 34.1827 13.2209 35.2207 14.3212 35.6064C22.4731 38.4635 30.4215 41.7932 38.1778 45.5844C39.3683 46.1663 40.7113 45.8061 41.4874 44.8929Z" fill="url(#paint5_linear)"/>
<path d="M42.1025 9.75668C41.9036 8.20336 40.2363 7.30465 38.8266 7.98657C37.9258 8.42227 37.4622 9.40946 37.6394 10.3943C37.6491 10.4487 37.6576 10.5038 37.6644 10.5595C39.0303 21.7433 39.0303 32.9542 37.6644 44.1377C37.6576 44.1935 37.6491 44.2486 37.6394 44.3029C37.4621 45.2877 37.9258 46.275 38.8266 46.7106C40.2363 47.3925 41.9037 46.4937 42.1025 44.9405C43.6022 33.2234 43.6024 21.4744 42.1025 9.75668Z" fill="url(#paint6_linear)"/>
<path d="M13.1502 37.1714C11.7388 37.1714 10.5947 36.0273 10.5947 34.6159V20.0811C10.5947 18.6697 11.7388 17.5256 13.1502 17.5256C14.5616 17.5256 15.7057 18.6697 15.7057 20.0811V34.6159C15.706 36.0273 14.5616 37.1714 13.1502 37.1714Z" fill="url(#paint7_linear)"/>
<path d="M46.0533 33.8523C45.9441 33.8523 45.8337 33.843 45.7225 33.8238C44.6727 33.6424 43.9689 32.6443 44.1504 31.5945C44.3092 30.6756 44.418 29.7011 44.4734 28.6981C44.5818 26.7393 44.4707 24.8224 44.1608 23.3002C43.9482 22.2563 44.622 21.2377 45.6659 21.0252C46.7104 20.8129 47.7284 21.4864 47.941 22.5303C48.3203 24.3929 48.4532 26.5992 48.3254 28.9109C48.2617 30.0622 48.1361 31.1861 47.9519 32.2514C47.7896 33.19 46.9744 33.8523 46.0533 33.8523Z" fill="url(#paint8_linear)"/>
<path d="M50.5565 37.4382C50.328 37.4382 50.0959 37.3974 49.8696 37.3111C48.8742 36.9316 48.375 35.8169 48.7546 34.8215C49.5894 32.6323 50.1101 30.0377 50.2604 27.3175C50.4106 24.5994 50.1789 21.98 49.5903 19.742C49.3193 18.7118 49.9348 17.6568 50.9651 17.3858C51.9949 17.1144 53.0502 17.7303 53.3212 18.7606C54.0111 21.3829 54.2846 24.4156 54.1124 27.5304C53.9403 30.643 53.3341 33.6395 52.3592 36.1961C52.066 36.9652 51.3336 37.4382 50.5565 37.4382Z" fill="url(#paint9_linear)"/>
<path d="M54.9222 40.899C54.6061 40.899 54.2858 40.8212 53.9897 40.6573C53.0577 40.1414 52.7203 38.9676 53.2363 38.0356C54.8942 35.0407 55.884 31.4029 56.099 27.5155C56.3136 23.6328 55.7309 19.9431 54.4138 16.8452C53.997 15.8648 54.4538 14.7322 55.4342 14.3154C56.4145 13.8986 57.5472 14.3554 57.964 15.3357C59.511 18.9739 60.1981 23.2593 59.9508 27.7284C59.704 32.193 58.5491 36.4031 56.6114 39.9039C56.2594 40.5399 55.6009 40.899 54.9222 40.899Z" fill="url(#paint10_linear)"/>
</g>
<defs>
<linearGradient id="paint0_linear" x1="5.39817" y1="43.6357" x2="17.0102" y2="43.6357" gradientUnits="userSpaceOnUse">
<stop stop-color="#FF4C54"/>
<stop offset="1" stop-color="#BE3F45"/>
</linearGradient>
<linearGradient id="paint1_linear" x1="10.5281" y1="43.8428" x2="4.96232" y2="43.8428" gradientUnits="userSpaceOnUse">
<stop stop-color="#FF4C54"/>
<stop offset="1" stop-color="#BE3F45"/>
</linearGradient>
<linearGradient id="paint2_linear" x1="14.6561" y1="43.1014" x2="-2.40591" y2="26.0394" gradientUnits="userSpaceOnUse">
<stop stop-color="#BE3F45" stop-opacity="0"/>
<stop offset="1" stop-color="#BE3F45"/>
</linearGradient>
<linearGradient id="paint3_linear" x1="10.2473" y1="25.4125" x2="10.2473" y2="33.8158" gradientUnits="userSpaceOnUse">
<stop stop-color="#FFB92D"/>
<stop offset="1" stop-color="#F59500"/>
</linearGradient>
<linearGradient id="paint4_linear" x1="27.7903" y1="24.0219" x2="27.7903" y2="40.9345" gradientUnits="userSpaceOnUse">
<stop stop-color="#FFB92D"/>
<stop offset="1" stop-color="#F59500"/>
</linearGradient>
<linearGradient id="paint5_linear" x1="22.5845" y1="35.1227" x2="-12.4453" y2="0.0933561" gradientUnits="userSpaceOnUse">
<stop stop-color="#BE3F45" stop-opacity="0"/>
<stop offset="1" stop-color="#BE3F45"/>
</linearGradient>
<linearGradient id="paint6_linear" x1="39.7676" y1="27.3494" x2="42.5699" y2="27.3494" gradientUnits="userSpaceOnUse">
<stop stop-color="#FFF465"/>
<stop offset="1" stop-color="#FFE600"/>
</linearGradient>
<linearGradient id="paint7_linear" x1="12.5637" y1="27.3492" x2="15.1083" y2="27.3492" gradientUnits="userSpaceOnUse">
<stop stop-color="#FFF465"/>
<stop offset="1" stop-color="#FFE600"/>
</linearGradient>
<linearGradient id="paint8_linear" x1="48.3885" y1="27.5256" x2="43.919" y2="27.3233" gradientUnits="userSpaceOnUse">
<stop stop-color="#C3C3C3"/>
<stop offset="1" stop-color="#F2F2F2"/>
</linearGradient>
<linearGradient id="paint9_linear" x1="54.1133" y1="27.5215" x2="48.9968" y2="27.2897" gradientUnits="userSpaceOnUse">
<stop stop-color="#C3C3C3"/>
<stop offset="1" stop-color="#F2F2F2"/>
</linearGradient>
<linearGradient id="paint10_linear" x1="59.9511" y1="27.7302" x2="53.5141" y2="27.4384" gradientUnits="userSpaceOnUse">
<stop stop-color="#C3C3C3"/>
<stop offset="1" stop-color="#F2F2F2"/>
</linearGradient>
<clipPath id="clip0">
<rect width="60" height="60" fill="white"/>
</clipPath>
</defs>
</svg>
