<svg width="16" height="16" viewBox="0 0 16 16" fill="none" xmlns="http://www.w3.org/2000/svg">
<g clip-path="url(#clip0)">
<path d="M15.6525 7.03938C15.9674 6.74269 16.0786 6.30727 15.9427 5.9025C15.8066 5.49774 15.4519 5.2088 15.0162 5.14748L11.1421 4.60335C10.9771 4.58013 10.8345 4.4801 10.7608 4.33547L9.02884 0.942505C8.83437 0.561277 8.43965 0.324364 7.99977 0.324364C7.5602 0.324364 7.16548 0.561277 6.97101 0.942505L5.23869 4.33578C5.165 4.48041 5.02211 4.58044 4.85711 4.60366L0.983026 5.14779C0.547623 5.2088 0.192637 5.49805 0.0564737 5.90281C-0.0793693 6.30758 0.0318041 6.743 0.346742 7.03969L3.14979 9.68073C3.26929 9.79345 3.32407 9.95573 3.29588 10.1143L2.63461 13.8436C2.57598 14.1719 2.66504 14.4911 2.88483 14.7429C3.22636 15.1353 3.82259 15.2548 4.29933 15.0127L7.76396 13.2518C7.90878 13.1784 8.09107 13.179 8.23557 13.2518L11.7005 15.0127C11.869 15.0984 12.0488 15.1418 12.2343 15.1418C12.5729 15.1418 12.894 14.9962 13.1147 14.7429C13.3348 14.4911 13.4236 14.1712 13.3649 13.8436L12.7033 10.1143C12.6751 9.95542 12.7299 9.79345 12.8494 9.68073L15.6525 7.03938Z" fill="#212121"/>
</g>
<defs>
<clipPath id="clip0">
<rect width="16" height="15.4659" fill="white"/>
</clipPath>
</defs>
</svg>
