<svg width="37" height="30" viewBox="0 0 37 30" fill="none" xmlns="http://www.w3.org/2000/svg">
<path d="M35.4924 3.48993C34.6911 3.84526 33.8592 4.12559 33.0057 4.32854C33.9462 3.4348 34.6534 2.31692 35.0523 1.06916C35.1662 0.712952 34.7793 0.404927 34.4576 0.595651C33.2702 1.29999 31.9911 1.82837 30.6559 2.16629C30.5784 2.1859 30.4985 2.19584 30.4183 2.19584C30.175 2.19584 29.9386 2.10553 29.7526 1.94162C28.332 0.689562 26.5048 0 24.6078 0C23.787 0 22.9582 0.127941 22.1445 0.380306C19.6233 1.16228 17.678 3.24196 17.0676 5.80782C16.8386 6.77023 16.7766 7.73352 16.8832 8.67088C16.8954 8.7786 16.8445 8.85378 16.8131 8.88904C16.758 8.95086 16.6798 8.98629 16.5987 8.98629C16.5896 8.98629 16.5803 8.98585 16.5711 8.98497C11.0522 8.47224 6.07559 5.81344 2.55784 1.49845C2.37846 1.27835 2.03447 1.30535 1.89149 1.55059C1.20262 2.7324 0.838583 4.08409 0.838583 5.45952C0.838583 7.56742 1.68546 9.55389 3.15649 11.002C2.53788 10.8554 1.93915 10.6244 1.38297 10.3155C1.1139 10.166 0.782834 10.3581 0.779053 10.6659C0.740539 13.7973 2.57394 16.5837 5.32043 17.8384C5.26512 17.8397 5.20981 17.8403 5.15441 17.8403C4.71905 17.8403 4.27825 17.7983 3.84439 17.7154C3.54137 17.6575 3.28681 17.945 3.38089 18.2388C4.27236 21.0219 6.6687 23.0733 9.53636 23.5391C7.15637 25.1367 4.38482 25.9795 1.50019 25.9795L0.600901 25.979C0.323825 25.979 0.0894847 26.1596 0.0188748 26.4279C-0.05068 26.6923 0.0774379 26.9711 0.313713 27.1085C3.56423 29.0002 7.27192 30 11.0375 30C14.3337 30 17.417 29.3459 20.2018 28.0559C22.7548 26.8733 25.0108 25.1828 26.9071 23.0314C28.6737 21.0273 30.0551 18.7137 31.0129 16.155C31.9259 13.7161 32.4084 11.1136 32.4084 8.62902V8.51067C32.4084 8.11172 32.5888 7.73634 32.9036 7.48081C34.0982 6.51092 35.1384 5.36921 35.9953 4.08743C36.2216 3.74898 35.8647 3.32479 35.4924 3.48993Z" fill="#212121" fill-opacity="0.5"/>
</svg>
