<svg width="16" height="16" viewBox="0 0 16 16" fill="none" xmlns="http://www.w3.org/2000/svg">
<path d="M11.6363 13.7708C11.6363 14.0743 11.289 14.3203 10.8606 14.3203H0.775736C0.347287 14.3203 0 14.0743 0 13.7708V6.62743C0 6.32393 0.347287 6.07794 0.775736 6.07794H10.8606C11.289 6.07794 11.6363 6.324 11.6363 6.62743V13.7708Z" fill="black"/>
<path d="M2.90912 5.80087C3.98022 5.80087 4.84851 4.93257 4.84851 3.86148C4.84851 2.79038 3.98022 1.92209 2.90912 1.92209C1.83802 1.92209 0.969727 2.79038 0.969727 3.86148C0.969727 4.93257 1.83802 5.80087 2.90912 5.80087Z" fill="black"/>
<path d="M8.2426 5.80085C9.58148 5.80085 10.6668 4.71548 10.6668 3.37661C10.6668 2.03773 9.58148 0.952362 8.2426 0.952362C6.90373 0.952362 5.81836 2.03773 5.81836 3.37661C5.81836 4.71548 6.90373 5.80085 8.2426 5.80085Z" fill="black"/>
<path d="M15.9999 14.5628C15.9999 14.5628 15.9353 15.0476 15.4827 15.0476C15.0301 15.0476 12.1211 12.334 12.1211 11.9769V8.42136C12.1211 8.06431 14.9656 5.35062 15.4827 5.35062C15.9999 5.35062 15.9999 5.83547 15.9999 5.83547V14.5628Z" fill="black"/>
</svg>
